<?xml version="1.0" encoding="utf-8"?><svg xmlns="http://www.w3.org/2000/svg" xmlns:xlink="http://www.w3.org/1999/xlink"><symbol viewBox="0 0 75 93.75" id="at"><path d="M40.773 9.488c14.528 0 23.82 9.95 23.82 23.953 0 12.177-8.374 18.197-15.577 18.197-3.86 0-7.067-1.832-7.852-4.977h-.13c-1.702 2.62-5.237 4.324-7.854 4.324-5.367 0-8.9-4.062-8.9-10.082 0-8.375 6.02-16.36 13.482-16.36 2.093 0 3.793.915 4.843 3.27h.13l1.046-2.746h6.81l-3.145 14.922c-.785 3.27.133 4.844 2.75 4.844 3.93 0 7.46-4.45 7.46-11.13 0-8.897-4.58-17.538-17.8-17.538-10.996 0-21.992 9.426-21.992 23.957 0 12.958 9.164 18.716 18.98 18.716 3.14 0 7.067-1.047 9.684-2.356l2.36 6.02c-4.06 2.094-8.246 3.012-12.957 3.012-13.223 0-25.524-7.856-25.524-25.13 0-18.59 13.742-30.894 30.367-30.894zm-5.105 34.555c1.176 0 2.223-.652 3.664-2.613l1.44-8.25c-.46-.914-1.44-1.57-2.62-1.57-3.402 0-5.496 5.11-5.496 8.64 0 2.422 1.047 3.793 3.012 3.793zm0 0"/></symbol><symbol viewBox="0 0 100 125" id="link"><path d="M82.206 16.073c-7.99-7.988-16.458-5.19-21.283-.364L49.845 26.786a2 2 0 0 0 2.83 2.83l11.077-11.08c7.08-7.08 13.75-1.51 15.626.365 2.698 2.7 8.197 9.753.99 16.96L63.28 52.95c-7.473 7.472-13.636 2.922-15.94.62a2 2 0 0 0-2.828 2.828c2.71 2.71 6.357 4.688 10.414 4.688 3.53 0 7.373-1.496 11.183-5.307l17.087-17.09c7.972-7.972 4.715-16.91-.99-22.617z"/><path d="M52.17 70.092l-2.83-2.828L38.087 78.52c-2.54 2.54-5.303 3.7-8.204 3.447-2.55-.222-5.186-1.576-7.422-3.813-2.456-2.456-4.037-5.267-4.452-7.915-.502-3.204.663-6.247 3.46-9.045l17.09-17.09c7.552-7.55 13.724-3.01 16.027-.706a2 2 0 0 0 2.828-2.83c-7.74-7.74-16.52-4.457-21.685.708L18.64 58.366c-3.7 3.7-5.284 8.02-4.583 12.49.698 4.46 3.417 7.968 5.575 10.126 2.9 2.9 6.42 4.666 9.904 4.97.373.032.744.048 1.114.048 3.678 0 7.206-1.594 10.265-4.653L52.17 70.092z"/></symbol><symbol viewBox="0 0 100 125" id="pin"><path fill="none" d="M51.875 50.634c8.46 0 15.34-6.882 15.34-15.34s-6.88-15.342-15.34-15.342-15.34 6.882-15.34 15.34 6.88 15.342 15.34 15.342z"/><path d="M50.135 90.463a2.014 2.014 0 0 0 3.48 0c.997-1.71 24.41-42.06 24.41-55.775 0-14.42-11.73-26.15-26.15-26.15-14.42 0-26.15 11.73-26.15 26.15 0 13.716 23.413 54.064 24.41 55.775zm1.74-70.51c8.46 0 15.34 6.88 15.34 15.34s-6.88 15.34-15.34 15.34-15.34-6.88-15.34-15.34 6.88-15.34 15.34-15.34z"/></symbol><symbol viewBox="0 0 100 125" id="tel"><path d="M31.8 61.2c11.9 14.4 40.9 28.2 47.9 25.1s8.5-9.8 8.2-12.9c-.3-3.1-16.2-12.6-20.2-14.4s-8.6 4-10.8 6.5c-2.3 2.4-11.1-4.9-14.9-8.6 0 0-10-11.2-7.7-13.6s8-7.2 6-11.1S28.2 12.7 25 12.5c-3.1-.2-9.7 1.6-12.5 8.7S23.1 55.4 38 66.7"/></symbol></svg>