<svg xmlns="http://www.w3.org/2000/svg" xmlns:xlink="http://www.w3.org/1999/xlink" version="1.1" x="0px" y="0px" viewBox="0 0 100 125" enable-background="new 0 0 100 100" xml:space="preserve"><path fill="none" d="M51.875,50.634c8.459,0,15.341-6.882,15.341-15.341s-6.882-15.341-15.341-15.341s-15.341,6.882-15.341,15.341  S43.416,50.634,51.875,50.634z"/><path d="M50.135,90.463c0.361,0.619,1.023,1,1.74,1s1.379-0.381,1.74-1c0.997-1.711,24.41-42.059,24.41-55.775  c0-14.419-11.731-26.15-26.15-26.15c-14.419,0-26.15,11.731-26.15,26.15C25.724,48.404,49.138,88.752,50.135,90.463z M51.875,19.952  c8.459,0,15.341,6.882,15.341,15.341s-6.882,15.341-15.341,15.341s-15.341-6.882-15.341-15.341S43.416,19.952,51.875,19.952z"/></svg>